---
title: 许冠英.1980-钱作怪（2008环球复黑王）【宝丽金】【WAV+CUE】
date: 2023-01-15 16:43:13
categories: WAV车载音乐、镜像
tags: 华语中文
---
# 许冠英.1980-钱作怪（2008环球复黑王）【宝丽金】【WAV+CUE】

REM DISCID B408560C
REM COMMENT "ExactAudioCopy v0.99pb2"
PERFORMER "许冠英"
TITLE "钱作怪（）"
FILE "许冠英-钱作怪.wav" WAVE
TRACK 01 AUDIO
TITLE "钱作怪"
PERFORMER "许冠英"
INDEX 01 00:00:00
TRACK 02 AUDIO
TITLE "人一个"
PERFORMER "许冠英"
INDEX 00 02:59:29
INDEX 01 03:02:29
TRACK 03 AUDIO
TITLE "波士"
PERFORMER "许冠英"
INDEX 00 06:09:50
INDEX 01 06:12:50
TRACK 04 AUDIO
TITLE "信佢就奇"
PERFORMER "许冠英"
INDEX 00 09:33:21
INDEX 01 09:36:21
TRACK 05 AUDIO
TITLE "心中有个梦"
PERFORMER "许冠英"
INDEX 00 11:52:66
INDEX 01 11:55:66
TRACK 06 AUDIO
TITLE "踏浪诉当年"
PERFORMER "许冠英"
INDEX 00 14:58:19
INDEX 01 15:01:19
TRACK 07 AUDIO
TITLE "您"
PERFORMER "许冠英"
INDEX 00 17:51:28
INDEX 01 17:54:28
TRACK 08 AUDIO
TITLE "我阿英个老婆"
PERFORMER "许冠英"
INDEX 00 21:33:39
INDEX 01 21:36:39
TRACK 09 AUDIO
TITLE "流浪之歌"
PERFORMER "许冠英"
INDEX 00 23:52:72
INDEX 01 23:55:72
TRACK 10 AUDIO
TITLE "虾妹恨嫁"
PERFORMER "许冠英"
INDEX 00 26:40:40
INDEX 01 26:43:40
TRACK 11 AUDIO
TITLE "我的家"
PERFORMER "许冠英"
INDEX 00 29:32:69
INDEX 01 29:35:69
TRACK 12 AUDIO
TITLE "心里情"
PERFORMER "许冠英"
INDEX 00 32:40:55
INDEX 01 32:43:55
许冠英.1980 - 钱作怪（2008环球复黑王）【宝丽金】【WAV+CUE】.rar: https://url27.ctfile.com/f/9388027-763640824-12e2a7?p=559675
(访问密码: 559675)
许飞 - 父亲写的散文诗.zip: https://url27.ctfile.com/f/9388027-442967322-7bdd56?p=559675
(访问密码: 559675)
许光汉.2021 - 许光汉同名专辑【容合音乐】【FLAC分轨】.rar: https://url27.ctfile.com/f/9388027-530102692-058e8f?p=559675
(访问密码: 559675)
许光汉《同名专辑》 2021 [FLAC+CUE/整轨].zip: https://url27.ctfile.com/f/9388027-539224886-e82279?p=559675
(访问密码: 559675)
许怀欣.2006 - 开窍【金牌娱乐】【WAV+CUE】.rar: https://url27.ctfile.com/f/9388027-741356037-2470a5?p=559675
(访问密码: 559675)
许钧.2016 - 万松岭【梦想当然】【WAV+CUE】.rar: https://url27.ctfile.com/f/9388027-730708524-f5a7fa?p=559675
(访问密码: 559675)
许廷铿.2012 - 蓝调【星焕国际】【WAV】.zip: https://url27.ctfile.com/f/9388027-406903849-5a1f4d?p=559675
(访问密码: 559675)
许哲佩-美好的[台版][WAV+CUE].zip: https://url27.ctfile.com/f/9388027-467839772-0c8598?p=559675
(访问密码: 559675)
许哲珮《摇摆电力公司》2014 [WAV+CUE].rar: https://url27.ctfile.com/f/9388027-395415702-4e1835?p=559675
(访问密码: 559675)
许哲珮《在我这儿》 2021 [FLAC+CUE/整轨].zip: https://url27.ctfile.com/f/9388027-539183676-efc805?p=559675
(访问密码: 559675)
许冠杰: https://url27.ctfile.com/d/9388027-30152910-8f0db7?p=559675
(访问密码: 559675)
许茹芸: https://url27.ctfile.com/d/9388027-31312929-f5639e?p=559675
(访问密码: 559675)
许美静: https://url27.ctfile.com/d/9388027-35289979-0e0c43?p=559675
(访问密码: 559675)
许志安: https://url27.ctfile.com/d/9388027-43928716-b8ad44?p=559675
(访问密码: 559675)
许景淳: https://url27.ctfile.com/d/9388027-46514719-e108f5?p=559675
(访问密码: 559675)
许慧欣: https://url27.ctfile.com/d/9388027-50192424-c67b17?p=559675
(访问密码: 559675)
许秋怡: https://url27.ctfile.com/d/9388027-53830410-3b3493?p=559675
(访问密码: 559675)
原文：[链接](https://blog.sina.com.cn/s/blog_1647c7e76010310p9.html)